<?xml version="1.0" encoding="UTF-8"?>
<svg id="Capa_2" data-name="Capa 2" xmlns="http://www.w3.org/2000/svg" viewBox="0 0 886.41 996.02">
  <defs>
    <style>
      .cls-1 {
        fill: #fff;
      }
    </style>
  </defs>
  <g id="Capa_1-2" data-name="Capa 1">
    <g>
      <path class="cls-1" d="M838.12,633.12c-5.87-3.02-8.21-6.03-8.21-12.74,.17-81.79,.17-163.75,0-245.55,0-6.03,1.51-9.22,7.37-11.9,42.91-19.44,59.84-71.57,37.04-112.8-22.63-41.23-77.27-54.64-116.32-28.16-6.37,4.36-10.56,4.36-16.93,.67-66.54-38.72-132.91-77.44-199.96-115.15-13.41-7.54-19.44-15.42-19.78-31.85C520.5,34.58,485.3,1.4,444.4,.06c-48.1-1.68-83.97,34.02-85.15,85.48-.33,8.38-2.85,12.57-9.89,16.76-68.89,39.72-137.44,79.95-205.99,120.34-6.54,3.86-10.56,3.69-16.93-.67-38.72-26.31-92.69-13.41-115.82,27.15-23.46,41.23-6.7,94.03,36.71,113.81,6.7,3.02,7.21,7.21,7.21,13.07,0,81.12-.17,162.25,.17,243.37,0,7.71-2.85,10.89-9.39,14.25C15.83,648.71,1.41,673.51,.07,704.35c.67,33.02,14.08,56.65,41.23,71.4,28.16,15.42,56.82,16.93,84.31-2.18,6.54-4.69,10.73-3.52,16.76,0,67.55,39.22,134.93,78.44,202.81,116.66,11.57,6.54,15.92,13.41,16.09,26.82,1.01,55.14,55.81,92.35,107.77,74.42,34.02-11.73,54.31-41.9,54.64-81.46,.17-6.37,.67-10.89,7.21-14.75,71.4-40.73,142.3-81.96,213.7-122.69,3.18-1.84,9.55-1.68,12.57,.34,41.06,26.65,95.37,15.25,118.5-25.31,23.63-41.4,7.04-92.52-37.54-114.48Zm-32.35-370.59c14.58,0,25.64,11.23,25.48,25.81-.17,14.41-12.07,26.31-26.82,26.48-15.25,0-27.32-12.07-27.15-27.32,.17-15.59,10.9-25.14,28.49-24.97ZM443.23,54.36c14.41,.34,26.15,12.74,26.15,27.15-.17,14.92-12.57,27.15-27.49,26.98-14.92-.33-27.15-12.91-26.65-27.65,.5-14.92,13.41-26.99,27.99-26.48ZM54.54,289.85c0-15.25,12.4-27.65,27.15-27.32,13.91,.34,25.48,12.4,25.48,26.65,.17,14.92-12.57,27.49-27.32,27.32-14.41-.34-25.31-11.9-25.31-26.65Zm26.48,443.33c-15.25,.34-27.66-11.9-27.32-26.65,.17-14.58,12.24-26.65,26.65-26.82,14.75-.17,27.15,12.24,27.15,27.32s-11.06,25.98-26.48,26.15Zm360.36,208.51c-14.25-.5-26.15-12.74-26.31-27.15,0-14.92,12.57-27.32,27.32-27.15,14.92,.17,27.32,12.74,26.98,27.49-.33,14.75-13.24,27.15-27.99,26.82Zm333.71-318.12c0,3.35-3.35,8.21-6.37,9.72-33.86,17.26-49.44,44.92-46.76,82.8,.17,3.02-2.51,7.88-5.2,9.39-71.74,41.4-143.64,82.63-215.71,123.53-3.02,1.68-8.72,1.34-11.57-.67-31.85-20.45-63.02-20.45-94.2,0-3.02,2.01-9.39,2.01-12.57,.17-71.74-40.9-142.97-82.3-214.71-123.19-5.7-3.35-6.54-6.87-5.87-12.74,3.18-34.19-13.74-64.19-45.09-78.94-6.7-3.18-8.38-6.87-8.38-13.74,.17-81.46,.17-162.92,0-244.38,0-7.04,2.01-10.56,8.55-13.58,30.67-14.75,47.6-44.92,44.75-79.45-.5-6.54,1.01-10.06,6.87-13.41,71.07-40.39,141.97-81.12,213.2-121.35,3.35-2.01,9.55-2.35,12.57-.5,33.69,21.29,63.36,21.12,96.88-1.51,1.17-.84,2.51-1.51,4.02-2.35,74.25,42.74,148.34,85.48,222.25,128.56,2.51,1.51,4.69,6.54,4.53,9.72-2.68,38.05,13.07,65.37,46.76,82.97,3.02,1.51,6.03,6.54,6.03,10.06,.34,82.97,.34,165.93,0,248.9Zm27.66,109.62c-14.75,0-26.31-11.73-26.31-26.65s11.73-27.15,26.98-27.49c14.92-.17,26.48,11.06,26.82,25.98,.33,15.59-12.07,28.16-27.49,28.16Z"/>
      <g>
        <g>
          <path class="cls-1" d="M556.03,567.92c-.17,0-.17,.17-.17,.17l.5-.17h-.33Zm14.08-137.44c-37.54-29.5-73.75-60.84-108.95-93.19-20.45-18.6-39.05-18.27-60.51-3.18-54.81,38.72-90.51,153.36-66.71,216.05,8.72,23.3,24.13,34.19,50.12,30.51,32.01-4.53,64.36-8.05,96.71-10.06,24.97-1.51,49.95-10.22,75.26-2.68,14.08-22.96,29.67-45.09,34.53-72.58,4.69-25.48,2.68-46.76-20.45-64.86Zm-150.01-1.17c-15.76-2.35-25.48,1.51-30.34,18.1-4.86,16.26-3.52,26.48,14.25,34.19,29,12.91,28.83,14.41,9.05,41.06-12.07,16.09-24.81,40.9-46.93,33.19-19.61-6.7-16.59-33.52-16.93-53.13-.34-22.63,4.19-44.75,9.72-65.53,12.74-31.01,25.64-60.84,51.29-82.46,18.94-15.76,30.67-12.4,37.04,11.06,3.02,11.06,4.02,22.96,4.53,34.53,1.01,33.35,.67,33.69-31.68,29Z"/>
          <path class="cls-1" d="M555.88,568.15c19.98,5.91,27.68-9.8,34.9-22.15,17.24-29.52,25.08-61.39,14.77-95.55,2.9-.61,4.82-1.69,5.88-1.14,19.54,10.22,51.21,2.82,56.76,33.08,6.68,36.43,.14,77.15-30.11,95.8-44.89,27.66-59.2,73.68-86.08,111.99-12.29,17.52-22.67,24.2-43.9,16.05-21.51-8.26-23.02-19.06-12.45-36.89,20.12-33.91,44.43-65.32,60.8-101.48l-.56,.29Z"/>
        </g>
        <g>
          <path class="cls-1" d="M177.65,386.63c-10.18,31.11-9.54,61.81,3.56,91.98,4.43,10.2,12.25,14.17,20.23,10.65,8.04-3.54,10.12-11.6,5.71-22.09-20.06-47.71-1.72-99.67,43.92-124.43,9.9-5.37,13.25-13.13,9.05-20.89-4.15-7.67-12.56-9.32-22.54-4.03-28.77,15.25-48.34,38.56-59.92,68.8Z"/>
          <path class="cls-1" d="M229.84,405.37c-5.3,17.05-5.22,33.97,1.96,50.57,4,9.26,11.33,12.76,19.26,9.51,7.96-3.27,10.46-10.51,6.98-20.24-8.01-22.38-1.48-40.99,18.73-53.35,8.81-5.39,11.42-12.61,7.3-20.15-4.24-7.75-12.35-9.43-21.73-4.29-15.56,8.53-26.04,21.46-32.49,37.93Z"/>
          <path class="cls-1" d="M683.16,534.95c-1.73,6.09-3.76,12.11-5.12,18.29-1.75,7.94,2.39,15,9.46,17.08,6.59,1.93,14.59-1.33,16.98-8.4,4.23-12.52,7.88-25.29,10.89-38.16,1.79-7.65-3.59-14.93-10.58-16.48-7.24-1.61-13.97,2.35-16.65,10.24-1.94,5.72-3.36,11.61-5.02,17.42,.01,0,.02,0,.04,.01Z"/>
          <path class="cls-1" d="M503.04,603.09c-2.64,3.98-5.47,7.85-7.86,11.98-3.07,5.31-1.71,11.33,2.9,14.44,4.29,2.89,10.8,2.38,14.13-2.16,5.9-8.04,11.45-16.38,16.55-24.95,3.03-5.09,.83-11.55-3.84-14.26-4.84-2.81-10.58-1.5-14.31,3.56-2.7,3.67-5.07,7.58-7.59,11.38,0,0,.02,.01,.02,.02Z"/>
          <path class="cls-1" d="M291.38,441.83c7.21,2.35,14.87-1.45,17.44-8.67,2.7-7.57-1.21-15.61-8.79-18.06-7.1-2.3-15.14,1.61-17.65,8.58-2.6,7.22,1.63,15.75,9,18.16Z"/>
        </g>
      </g>
    </g>
  </g>
</svg>