<?xml version="1.0" encoding="UTF-8"?>
<svg id="Capa_2" data-name="Capa 2" xmlns="http://www.w3.org/2000/svg" viewBox="0 0 943.18 474.21">
  <defs>
    <style>
      .cls-1 {
        fill: #fff;
      }
    </style>
  </defs>
  <g id="Capa_1-2" data-name="Capa 1">
    <g>
      <g>
        <path class="cls-1" d="M188.5,0h-59.51l-31.01,76.95h-2.5L65.7,0H4.96L0,171.2H47.12l2.46-84.37h2.5l24.31,57.1h35.2l24.81-57.1h2.5l2.46,84.37h52.09L188.5,0Z"/>
        <path class="cls-1" d="M286.98,45.44l-17.57,68.48-19.62-68.48h-47.12l42.16,120.29c-1.14,9.93-10.02,14.89-26.54,14.89-3.64,0-6.51-.32-8.7-.96l5.46,34.19c6.47,1,12.43,1.5,17.89,1.5,25.13,0,43.57-16.53,55.32-49.63l42.16-120.29h-43.44Z"/>
      </g>
      <g>
        <path class="cls-1" d="M490.32,111.05c-5.37-7.19-11.75-12.84-19.12-16.98-7.33-4.14-16.48-8.33-27.41-12.66-9.06-3.78-15.89-7.15-20.44-10.02-4.55-2.91-6.83-6.19-6.83-9.83,0-2.96,1.46-5.28,4.33-6.92,2.91-1.68,7.1-2.5,12.57-2.5,7.1,0,15.53,1.28,25.27,3.87,9.79,2.55,17.62,5.42,23.59,8.56l12.38-42.21c-6.78-3.46-16.25-6.37-28.41-8.79-12.11-2.41-23.49-3.6-34.1-3.6-12.7,0-24.31,1.87-34.69,5.6-10.43,3.69-18.76,9.42-24.95,17.12-6.19,7.65-9.29,17.07-9.29,28.14,0,10.11,2.69,18.71,8.06,25.91,5.37,7.19,11.79,13.02,19.35,17.39,7.51,4.37,16.66,8.79,27.41,13.25,9.42,3.82,16.25,7.06,20.58,9.7,4.28,2.64,6.47,5.87,6.47,9.65,0,6.47-5.74,9.7-17.12,9.7-10.75,0-20.99-1.28-30.64-3.73-9.7-2.5-18.26-5.78-25.68-9.93l-10.93,43.39c7.28,3.64,17.62,6.65,31.01,8.97,13.39,2.28,25.91,3.46,37.47,3.46,21.99,0,39.02-4.55,51.09-13.66,12.07-9.06,18.12-21.49,18.12-37.2,0-10.56-2.69-19.49-8.06-26.68Z"/>
        <path class="cls-1" d="M586.21,153.85c-2.14,1.18-5.14,1.73-8.92,1.73-7.97,0-11.93-3.87-11.93-11.66v-44.67h22.31v-34.69h-22.31V24.86h-42.16v39.7h-9.93l-7.47,34.69h17.39v47.17c0,13.57,3.92,23.95,11.79,31.23,7.83,7.29,19.03,10.93,33.6,10.93,8.74,0,17.44-2.14,26.04-6.47l-8.42-28.27Z"/>
        <path class="cls-1" d="M705.41,77.45c-10.52-11.06-25.54-16.62-45.03-16.62s-34.51,5.55-45.03,16.62c-10.52,11.06-15.75,26.77-15.75,47.12s5.24,36.33,15.75,47.4c10.52,11.06,25.5,16.62,45.03,16.62s34.51-5.55,45.03-16.62c10.47-11.06,15.75-26.86,15.75-47.4s-5.28-36.06-15.75-47.12Zm-45.03,76.4c-12.43,0-18.62-9.74-18.62-29.28s6.19-29,18.62-29,18.62,9.65,18.62,29-6.24,29.28-18.62,29.28Z"/>
        <path class="cls-1" d="M816.42,60.83c-13.75,0-26.45,6.51-38.2,19.58l-3.73-15.84h-34.74v120.29h42.21V106.22c4.1-3.14,9.7-5.69,16.71-7.69,7.06-1.96,14.3-2.96,21.72-2.96l-3.96-34.74Z"/>
        <path class="cls-1" d="M943.18,120.11c0-19.03-4.78-33.65-14.39-43.89-9.61-10.24-23.22-15.39-40.93-15.39-19.17,0-33.97,5.55-44.39,16.62-10.43,11.06-15.66,26.77-15.66,47.12s5.24,36.33,15.66,47.4c10.43,11.06,25.27,16.62,44.62,16.62,10.29,0,19.9-.96,28.91-2.87,9.02-1.91,16.66-4.64,22.95-8.29l-3.73-31.01c-5.28,2.32-11.25,4.1-17.98,5.46-6.69,1.32-13.34,1.96-19.94,1.96-8.61,0-15.3-1.5-20.12-4.6-4.78-3.05-7.19-7.38-7.19-13.02h70.98c.82-4.1,1.23-9.52,1.23-16.12Zm-72.21-5.96c0-5.92,1.32-10.52,3.87-13.75,2.55-3.23,6.15-4.83,10.79-4.83s8.2,1.59,10.65,4.83c2.5,3.23,3.73,7.83,3.73,13.75h-29.05Z"/>
      </g>
      <g>
        <path class="cls-1" d="M111.1,230.8c-12.29-12.43-29.73-18.62-52.36-18.62H.36v143.74H58.74c22.63,0,40.07-6.24,52.36-18.67,12.29-12.43,18.44-30.14,18.44-53.23s-6.15-40.8-18.44-53.23Zm-34.47,80.23c-5.42,6.33-13.07,9.47-22.9,9.47h-9.61v-72.94h9.61c9.83,0,17.48,3.19,22.9,9.52,5.42,6.28,8.15,15.3,8.15,26.95s-2.73,20.67-8.15,27Z"/>
        <path class="cls-1" d="M175.16,214.63c-3.05-2.91-7.47-4.37-13.29-4.37s-10.29,1.46-13.34,4.37c-3.05,2.96-4.6,7.19-4.6,12.75,0,11.38,5.96,17.07,17.94,17.07s17.89-5.69,17.89-17.07c0-5.55-1.55-9.79-4.6-12.75Zm-31.01,40.25v101.03h35.38v-101.03h-35.38Z"/>
        <path class="cls-1" d="M285.71,340.39c-7.15-4.92-17.48-7.42-30.96-7.42-10.56,0-17.67-.32-21.35-1-3.69-.73-5.51-1.91-5.51-3.55,0-3.19,5.05-4.78,15.21-4.78,14.57,0,25.82-3.1,33.65-9.29s11.79-15.03,11.79-26.54c0-4.05-.59-8.06-1.68-12.11l11.47-2.5-5.42-21.67-17.94,8.33c-7.51-5.42-18.12-8.1-31.87-8.1-14.43,0-25.59,3.14-33.42,9.38-7.88,6.24-11.79,15.12-11.79,26.68,0,13.89,5.65,23.86,16.89,29.96-5.28,1.68-9.38,4.01-12.29,7.01-2.91,2.96-4.37,6.33-4.37,10.11,0,6.37,1.64,10.61,5.01,12.7-4.74,3.32-8.1,6.69-10.11,10.11-2.05,3.37-3.05,7.6-3.05,12.61,0,8.88,4.37,15.62,13.02,20.31,8.7,4.64,20.72,6.97,36.15,6.97,18.62,0,32.83-3,42.62-8.97,9.79-5.96,14.66-14.8,14.66-26.45,0-9.56-3.55-16.85-10.7-21.76Zm-51.27-64.06c2.14-2.5,5.24-3.73,9.29-3.73s7.1,1.23,9.24,3.73c2.19,2.5,3.23,6.1,3.23,10.84s-1.05,8.33-3.23,10.84c-2.14,2.5-5.24,3.73-9.24,3.73s-7.15-1.23-9.29-3.73c-2.14-2.5-3.23-6.1-3.23-10.84s1.09-8.33,3.23-10.84Zm22.63,94.25c-2.64,.91-6.15,1.37-10.43,1.37-8.2,0-14.84-.91-19.9-2.69-5.1-1.82-7.6-4.33-7.6-7.51,0-1.82,.46-3.32,1.46-4.6,3.73,1.28,7.47,2.14,11.16,2.6,3.64,.5,8.15,.87,13.43,1.18,5.69,.41,9.74,.91,12.16,1.55,2.46,.64,3.69,2.05,3.69,4.28,0,1.64-1.32,2.91-3.96,3.82Z"/>
        <path class="cls-1" d="M338.71,214.63c-3.05-2.91-7.47-4.37-13.34-4.37s-10.24,1.46-13.29,4.37c-3.1,2.96-4.6,7.19-4.6,12.75,0,11.38,5.96,17.07,17.89,17.07s17.94-5.69,17.94-17.07c0-5.55-1.55-9.79-4.6-12.75Zm-31.05,40.25v101.03h35.42v-101.03h-35.42Z"/>
        <path class="cls-1" d="M423.08,329.87c-1.78,.96-4.28,1.46-7.47,1.46-6.69,0-10.02-3.28-10.02-9.79v-37.52h18.76v-29.14h-18.76v-33.37h-35.42v33.37h-8.33l-6.24,29.14h14.57v39.61c0,11.38,3.32,20.12,9.93,26.23,6.56,6.1,15.98,9.15,28.23,9.15,7.33,0,14.62-1.78,21.85-5.42l-7.1-23.72Z"/>
        <path class="cls-1" d="M518.74,262.17c-7.24-6.97-17.85-10.43-31.87-10.43-7.51,0-15.39,.96-23.68,2.82-8.24,1.87-15.44,4.46-21.54,7.79l6.42,23.95c5.42-2.32,10.97-4.19,16.57-5.51,5.65-1.32,10.79-1.96,15.53-1.96,9.29,0,13.98,2.69,13.98,8.1v4.37c-18.08,0-31.96,3.28-41.66,9.79-9.74,6.56-14.62,15.98-14.62,28.37,0,9.15,2.6,16.39,7.74,21.67,5.1,5.24,12.25,7.88,21.44,7.88,5.96,0,11.52-1.18,16.66-3.64,5.15-2.41,9.56-6.01,13.34-10.7l2.09,11.25h30.42v-63.56c0-13.2-3.64-23.27-10.84-30.19Zm-24.59,67.48c-2.37,2.78-5.51,4.19-9.38,4.19-3.32,0-5.92-1-7.74-2.91-1.78-1.96-2.69-4.6-2.69-7.92,0-4.6,1.68-8.06,5.1-10.43,3.41-2.37,8.29-3.55,14.71-3.55v20.63Z"/>
        <path class="cls-1" d="M547.24,203.84v152.07h35.42V203.84h-35.42Z"/>
      </g>
      <g>
        <path class="cls-1" d="M18.03,406.09H.41v52.36H18.03c15.94,0,24.81-9.47,24.81-26.27s-8.88-26.09-24.81-26.09Zm-.46,46.67H7.1v-40.98h10.47c11.75,0,18.35,7.33,18.35,20.4s-6.6,20.58-18.35,20.58Z"/>
        <path class="cls-1" d="M66.61,421.62c-4.28,0-9.88,1.37-14.3,3.87l1.55,4.28c3.78-2,7.79-3.19,11.84-3.19,4.83,0,7.1,2.09,7.1,5.69v3.64c-14.16,0-22.22,4.78-22.22,13.34,0,6.01,4.01,10.02,10.15,10.02,4.33,0,9.11-1.96,12.52-5.24l.64,4.42h4.78v-26.04c0-6.6-4.74-10.79-12.07-10.79Zm6.19,28.27c-2.87,2.87-6.88,4.69-10.15,4.69-3.87,0-6.06-2.5-6.06-6.01,0-5.51,5.83-8.65,16.21-8.65v9.97Z"/>
        <path class="cls-1" d="M131.86,421.62c-4.83,0-9.93,2.46-12.89,6.37-1.27-4.01-4.87-6.37-9.88-6.37s-9.47,2.37-12.89,6.1l-.64-5.24h-4.6v35.97h5.74v-26.13c3.05-3.32,6.83-5.46,10.34-5.46,3.96,0,6.69,2.5,6.69,6.47v25.13h5.78v-26.04c3.01-3.41,6.83-5.55,10.38-5.55,3.87,0,6.6,2.5,6.6,6.47v25.13h5.78v-26.73c0-6.24-4.05-10.11-10.43-10.11Z"/>
        <path class="cls-1" d="M168.51,421.62c-10.52,0-16.53,6.78-16.53,18.85s6.01,18.8,16.53,18.8,16.62-6.74,16.62-18.8-5.96-18.85-16.62-18.85Zm.09,32.6c-6.92,0-10.7-4.87-10.7-13.75s3.78-13.75,10.7-13.75,10.61,4.87,10.61,13.75-3.78,13.75-10.61,13.75Z"/>
        <path class="cls-1" d="M207.3,437.37c-4.42-1.32-8.29-2.37-8.29-5.87,0-3.19,2.96-5.1,7.01-5.1,3.32,0,8.01,1.37,10.84,2.6l.46-4.87c-3.1-1.5-7.88-2.5-11.61-2.5-6.92,0-12.43,3.28-12.43,10.11s6.06,8.88,11.61,10.47c4.6,1.37,8.92,3.05,8.92,6.69s-2.96,5.37-7.51,5.37c-4.1,0-10.06-1.5-13.02-3.46l-.64,5.15c2.82,1.96,8.2,3.32,12.98,3.32,8.42,0,13.84-3.78,13.84-10.97s-6.37-9.33-12.16-10.93Z"/>
        <path class="cls-1" d="M268.86,422.48l-10.24,29.96-10.61-29.96h-6.42l13.29,35.97h6.83l13.2-35.97h-6.06Z"/>
        <path class="cls-1" d="M285.94,410.23c-2.5,0-3.96,1.32-3.96,3.82s1.46,3.78,3.96,3.78,3.87-1.27,3.87-3.78-1.37-3.82-3.87-3.82Zm-3.05,12.25v35.97h5.78v-35.97h-5.78Z"/>
        <path class="cls-1" d="M324.96,403.04v23.22c-3.19-3.32-7.24-4.64-11.11-4.64-9.33,0-14.8,7.28-14.8,19.08s5.33,18.58,14.75,18.58c4.83,0,8.97-1.82,11.61-5.51l.68,4.69h4.64v-55.41h-5.78Zm0,46.17c-2.28,3.23-5.92,5.01-9.56,5.01-6.15,0-10.34-4.51-10.34-13.84,0-8.51,3.78-13.66,10.11-13.66,3.87,0,7.42,1.91,9.79,5.01v17.48Z"/>
        <path class="cls-1" d="M356.74,421.62c-4.23,0-9.83,1.37-14.25,3.87l1.5,4.28c3.78-2,7.83-3.19,11.84-3.19,4.87,0,7.15,2.09,7.15,5.69v3.64c-14.21,0-22.26,4.78-22.26,13.34,0,6.01,4.05,10.02,10.2,10.02,4.33,0,9.11-1.96,12.52-5.24l.59,4.42h4.78v-26.04c0-6.6-4.69-10.79-12.07-10.79Zm6.24,28.27c-2.87,2.87-6.92,4.69-10.15,4.69-3.87,0-6.1-2.5-6.1-6.01,0-5.51,5.87-8.65,16.25-8.65v9.97Z"/>
        <path class="cls-1" d="M421.94,403.04v23.22c-3.19-3.32-7.19-4.64-11.06-4.64-9.33,0-14.8,7.28-14.8,19.08s5.28,18.58,14.71,18.58c4.87,0,8.97-1.82,11.61-5.51l.68,4.69h4.64v-55.41h-5.78Zm0,46.17c-2.28,3.23-5.92,5.01-9.56,5.01-6.15,0-10.34-4.51-10.34-13.84,0-8.51,3.82-13.66,10.11-13.66,3.87,0,7.42,1.91,9.79,5.01v17.48Z"/>
        <path class="cls-1" d="M443.7,410.23c-2.5,0-3.92,1.32-3.92,3.82s1.41,3.78,3.92,3.78,3.87-1.27,3.87-3.78-1.32-3.82-3.87-3.82Zm-3,12.25v35.97h5.74v-35.97h-5.74Z"/>
        <path class="cls-1" d="M473.02,451.17c-5.33-.59-7.42-1.23-7.42-2.73,0-1.23,1.05-2.05,2.96-2.05l.46-.14c.73,.05,1.5,.14,2.32,.14,8.74,0,13.89-4.64,13.89-12.38,0-2.5-.5-4.64-1.5-6.37l4.92-1.5-1.37-4.55-5.96,3.1c-2.37-1.96-5.78-3.05-9.97-3.05-8.65,0-13.89,4.64-13.89,12.38,0,5.19,2.37,8.97,6.47,10.93-2.19,.68-3.55,2.28-3.55,4.33s1.14,3.51,3.23,4.19c-4.83,1.14-9.24,4.1-9.24,10.02,0,6.69,5.83,10.15,16.76,10.15s17.3-3.78,17.3-11.29c0-8.2-7.88-10.34-15.39-11.16Zm-9.93-17.17c0-5.1,2.87-8.2,8.42-8.2s8.33,3.1,8.33,8.2-3.1,8.15-8.33,8.15-8.42-3.05-8.42-8.15Zm8.65,35.06c-7.69,0-12.25-2.41-12.25-6.74,0-3.51,3.37-6.24,9.33-6.69,8.97,1.46,13.98,2.6,13.98,7.15,0,4.01-4.01,6.28-11.06,6.28Z"/>
        <path class="cls-1" d="M498.88,410.23c-2.5,0-3.92,1.32-3.92,3.82s1.41,3.78,3.92,3.78,3.87-1.27,3.87-3.78-1.37-3.82-3.87-3.82Zm-3,12.25v35.97h5.74v-35.97h-5.74Z"/>
        <path class="cls-1" d="M529.16,453.22c-1.18,.46-2.5,.55-3.69,.55-2.46,0-3.82-1.55-3.82-4.19v-22.08h7.29v-5.01h-7.29v-12.98h-5.74v12.98h-4.19l-1.46,5.01h5.65v22.22c0,5.78,3.19,9.06,8.88,9.06,2.05,0,4.01-.55,5.96-1.55l-1.59-4.01Z"/>
        <path class="cls-1" d="M552.38,421.62c-4.23,0-9.83,1.37-14.25,3.87l1.5,4.28c3.82-2,7.83-3.19,11.84-3.19,4.87,0,7.15,2.09,7.15,5.69v3.64c-14.21,0-22.22,4.78-22.22,13.34,0,6.01,4.01,10.02,10.15,10.02,4.33,0,9.11-1.96,12.52-5.24l.64,4.42h4.78v-26.04c0-6.6-4.74-10.79-12.11-10.79Zm6.24,28.27c-2.87,2.87-6.92,4.69-10.15,4.69-3.87,0-6.1-2.5-6.1-6.01,0-5.51,5.87-8.65,16.25-8.65v9.97Z"/>
        <path class="cls-1" d="M576.74,403.04v55.41h5.78v-55.41h-5.78Z"/>
      </g>
      <g>
        <path class="cls-1" d="M887.36,375.63c-1.59-.82-2.23-1.64-2.23-3.46,.05-22.22,.05-44.48,0-66.7,0-1.64,.41-2.5,2-3.23,11.66-5.28,16.25-19.44,10.06-30.64-6.15-11.2-20.99-14.84-31.6-7.65-1.73,1.18-2.87,1.18-4.6,.18-18.08-10.52-36.11-21.04-54.32-31.28-3.64-2.05-5.28-4.19-5.37-8.65-.23-11.16-9.79-20.17-20.9-20.53-13.07-.46-22.81,9.24-23.13,23.22-.09,2.28-.77,3.41-2.69,4.55-18.71,10.79-37.34,21.72-55.96,32.69-1.78,1.05-2.87,1-4.6-.18-10.52-7.15-25.18-3.64-31.46,7.38-6.37,11.2-1.82,25.54,9.97,30.92,1.82,.82,1.96,1.96,1.96,3.55,0,22.04-.05,44.07,.05,66.11,0,2.09-.77,2.96-2.55,3.87-8.01,4.1-11.93,10.84-12.29,19.21,.18,8.97,3.82,15.39,11.2,19.4,7.65,4.19,15.44,4.6,22.9-.59,1.78-1.27,2.91-.96,4.55,0,18.35,10.65,36.65,21.31,55.09,31.69,3.14,1.78,4.33,3.64,4.37,7.28,.27,14.98,15.16,25.09,29.28,20.22,9.24-3.19,14.75-11.38,14.84-22.13,.05-1.73,.18-2.96,1.96-4.01,19.4-11.06,38.66-22.26,58.05-33.33,.86-.5,2.6-.46,3.41,.09,11.15,7.24,25.91,4.14,32.19-6.88,6.42-11.25,1.91-25.13-10.2-31.1Zm-8.79-100.67c3.96,0,6.97,3.05,6.92,7.01-.05,3.92-3.28,7.15-7.29,7.19-4.14,0-7.42-3.28-7.38-7.42,.05-4.23,2.96-6.83,7.74-6.78Zm-98.48-56.55c3.92,.09,7.1,3.46,7.1,7.38-.05,4.05-3.41,7.38-7.47,7.33-4.05-.09-7.38-3.51-7.24-7.51,.14-4.05,3.64-7.33,7.6-7.19Zm-105.59,63.97c0-4.14,3.37-7.51,7.38-7.42,3.78,.09,6.92,3.37,6.92,7.24,.05,4.05-3.41,7.47-7.42,7.42-3.92-.09-6.88-3.23-6.88-7.24Zm7.19,120.43c-4.14,.09-7.51-3.23-7.42-7.24,.05-3.96,3.32-7.24,7.24-7.28,4.01-.05,7.38,3.32,7.38,7.42s-3.01,7.06-7.19,7.1Zm97.89,56.64c-3.87-.14-7.1-3.46-7.15-7.38,0-4.05,3.41-7.42,7.42-7.38,4.05,.05,7.42,3.46,7.33,7.47-.09,4.01-3.6,7.38-7.6,7.28Zm90.65-86.42c0,.91-.91,2.23-1.73,2.64-9.2,4.69-13.43,12.2-12.7,22.49,.05,.82-.68,2.14-1.41,2.55-19.49,11.25-39.02,22.45-58.6,33.56-.82,.46-2.37,.36-3.14-.18-8.65-5.55-17.12-5.55-25.59,0-.82,.55-2.55,.55-3.41,.05-19.49-11.11-38.84-22.36-58.33-33.47-1.55-.91-1.78-1.87-1.59-3.46,.86-9.29-3.73-17.44-12.25-21.45-1.82-.87-2.28-1.87-2.28-3.73,.05-22.13,.05-44.26,0-66.38,0-1.91,.55-2.87,2.32-3.69,8.33-4.01,12.93-12.2,12.16-21.58-.14-1.78,.27-2.73,1.87-3.64,19.31-10.97,38.56-22.04,57.92-32.96,.91-.55,2.6-.64,3.41-.14,9.15,5.78,17.21,5.74,26.32-.41,.32-.23,.68-.41,1.09-.64,20.17,11.61,40.3,23.22,60.37,34.92,.68,.41,1.28,1.78,1.23,2.64-.73,10.34,3.55,17.76,12.7,22.54,.82,.41,1.64,1.78,1.64,2.73,.09,22.54,.09,45.08,0,67.61Zm7.51,29.78c-4.01,0-7.15-3.19-7.15-7.24s3.19-7.38,7.33-7.47c4.05-.05,7.19,3,7.29,7.06,.09,4.23-3.28,7.65-7.47,7.65Z"/>
        <g>
          <g>
            <path class="cls-1" d="M810.73,357.92s-.05,.05-.05,.05l.14-.05h-.09Zm3.82-37.34c-10.2-8.01-20.03-16.53-29.6-25.32-5.55-5.05-10.61-4.96-16.44-.87-14.89,10.52-24.59,41.66-18.12,58.69,2.37,6.33,6.56,9.29,13.61,8.29,8.7-1.23,17.48-2.19,26.27-2.73,6.78-.41,13.57-2.78,20.44-.73,3.82-6.24,8.06-12.25,9.38-19.72,1.27-6.92,.73-12.7-5.55-17.62Zm-40.75-.32c-4.28-.64-6.92,.41-8.24,4.92-1.32,4.42-.96,7.19,3.87,9.29,7.88,3.51,7.83,3.92,2.46,11.16-3.28,4.37-6.74,11.11-12.75,9.02-5.33-1.82-4.51-9.11-4.6-14.43-.09-6.15,1.14-12.16,2.64-17.8,3.46-8.42,6.97-16.53,13.93-22.4,5.15-4.28,8.33-3.37,10.06,3.01,.82,3,1.09,6.24,1.23,9.38,.27,9.06,.18,9.15-8.61,7.88Z"/>
            <path class="cls-1" d="M810.69,357.98c5.43,1.61,7.52-2.66,9.48-6.02,4.68-8.02,6.81-16.68,4.01-25.96,.79-.17,1.31-.46,1.6-.31,5.31,2.78,13.91,.77,15.42,8.98,1.81,9.9,.04,20.96-8.18,26.02-12.19,7.51-16.08,20.01-23.38,30.42-3.34,4.76-6.16,6.57-11.93,4.36-5.84-2.24-6.25-5.18-3.38-10.02,5.47-9.21,12.07-17.74,16.52-27.57l-.15,.08Z"/>
          </g>
          <g>
            <path class="cls-1" d="M707.94,308.67c-2.77,8.45-2.59,16.79,.97,24.99,1.2,2.77,3.33,3.85,5.49,2.89,2.18-.96,2.75-3.15,1.55-6-5.45-12.96-.47-27.07,11.93-33.8,2.69-1.46,3.6-3.57,2.46-5.68-1.13-2.08-3.41-2.53-6.12-1.09-7.81,4.14-13.13,10.47-16.28,18.69Z"/>
            <path class="cls-1" d="M722.12,313.76c-1.44,4.63-1.42,9.23,.53,13.74,1.09,2.52,3.08,3.47,5.23,2.58,2.16-.89,2.84-2.85,1.9-5.5-2.18-6.08-.4-11.14,5.09-14.49,2.39-1.46,3.1-3.43,1.98-5.47-1.15-2.1-3.36-2.56-5.9-1.16-4.23,2.32-7.07,5.83-8.83,10.3Z"/>
            <path class="cls-1" d="M845.26,348.96c-.47,1.65-1.02,3.29-1.39,4.97-.48,2.16,.65,4.08,2.57,4.64,1.79,.53,3.96-.36,4.61-2.28,1.15-3.4,2.14-6.87,2.96-10.37,.49-2.08-.98-4.05-2.87-4.48-1.97-.44-3.79,.64-4.52,2.78-.53,1.55-.91,3.15-1.36,4.73,0,0,0,0,0,0Z"/>
            <path class="cls-1" d="M796.33,367.47c-.72,1.08-1.49,2.13-2.14,3.25-.83,1.44-.46,3.08,.79,3.92,1.17,.79,2.93,.65,3.84-.59,1.6-2.18,3.11-4.45,4.5-6.78,.82-1.38,.22-3.14-1.04-3.87-1.31-.76-2.87-.41-3.89,.97-.73,1-1.38,2.06-2.06,3.09,0,0,0,0,0,0Z"/>
            <path class="cls-1" d="M738.83,323.67c1.96,.64,4.04-.39,4.74-2.36,.73-2.06-.33-4.24-2.39-4.91-1.93-.63-4.11,.44-4.79,2.33-.7,1.96,.44,4.28,2.44,4.93Z"/>
          </g>
        </g>
      </g>
    </g>
  </g>
</svg>